<svg version="1.1" xmlns="http://www.w3.org/2000/svg" viewBox="0 0 401.4140625 401.4140625" width="330px" height="330px">
  <!-- svg-source:excalidraw -->

  <defs>
    <style>
        * {
            font-family: sans-serif;
        }
  </style>
  </defs>
  <rect x="0" y="0" width="401.4140625" height="401.4140625" fill="#fff"></rect>
  <g stroke-linecap="round" transform="translate(10 10) rotate(0 190.70703125 190.70703125)">
    <path d="M42.8 70.33 C42.8 70.33, 42.8 70.33, 42.8 70.33 M42.8 70.33 C42.8 70.33, 42.8 70.33, 42.8 70.33 M23.25 105.01 C35.91 90.45, 48.57 75.88, 82.95 36.33 M23.25 105.01 C40.74 84.88, 58.24 64.76, 82.95 36.33 M12.88 129.13 C46.81 90.1, 80.73 51.07, 104.73 23.47 M12.88 129.13 C39.43 98.59, 65.98 68.04, 104.73 23.47 M11.71 142.68 C39.49 110.71, 67.28 78.75, 118.64 19.66 M11.71 142.68 C50.99 97.49, 90.27 52.3, 118.64 19.66 M2.65 165.28 C35.33 127.7, 68 90.11, 139.77 7.55 M2.65 165.28 C42.1 119.9, 81.55 74.53, 139.77 7.55 M1.47 178.83 C59.57 112.01, 117.66 45.18, 153.02 4.5 M1.47 178.83 C51.48 121.31, 101.48 63.79, 153.02 4.5 M0.95 191.63 C51.98 132.92, 103.02 74.22, 165.62 2.2 M0.95 191.63 C47.27 138.35, 93.59 85.06, 165.62 2.2 M1.08 203.67 C68.47 126.16, 135.85 48.64, 177.56 0.65 M1.08 203.67 C40.58 158.24, 80.08 112.8, 177.56 0.65 M1.87 214.96 C62.48 145.23, 123.09 75.51, 188.85 -0.14 M1.87 214.96 C62.09 145.69, 122.3 76.42, 188.85 -0.14 M7.26 220.96 C51.67 169.87, 96.08 118.77, 195.54 4.36 M7.26 220.96 C46.89 175.37, 86.52 129.78, 195.54 4.36 M7.39 233 C47.72 186.6, 88.06 140.2, 206.83 3.57 M7.39 233 C83.37 145.59, 159.36 58.18, 206.83 3.57 M8.83 243.53 C73.15 169.54, 137.48 95.55, 218.12 2.78 M8.83 243.53 C86.35 154.36, 163.86 65.19, 218.12 2.78 M11.59 252.55 C64.82 191.32, 118.04 130.1, 227.43 4.25 M11.59 252.55 C86.68 166.18, 161.76 79.8, 227.43 4.25 M16.32 259.31 C90.43 174.05, 164.55 88.79, 234.78 7.99 M16.32 259.31 C82.43 183.26, 148.54 107.21, 234.78 7.99 M18.42 269.09 C95.58 180.33, 172.74 91.56, 244.76 8.71 M18.42 269.09 C70.74 208.9, 123.06 148.71, 244.76 8.71 M22.49 276.6 C81.43 208.8, 140.36 141, 252.76 11.7 M22.49 276.6 C97.34 190.5, 172.19 104.39, 252.76 11.7 M27.21 283.36 C108.75 189.56, 190.3 95.75, 260.11 15.44 M27.21 283.36 C110.62 187.41, 194.03 91.45, 260.11 15.44 M30.63 291.63 C117.07 192.19, 203.51 92.75, 268.78 17.67 M30.63 291.63 C95.95 216.48, 161.27 141.34, 268.78 17.67 M34.7 299.14 C112.05 210.15, 189.41 121.16, 276.13 21.41 M34.7 299.14 C125.18 195.05, 215.66 90.97, 276.13 21.41 M40.08 305.14 C124.57 207.94, 209.07 110.74, 283.48 25.14 M40.08 305.14 C114.49 219.53, 188.91 133.93, 283.48 25.14 M44.15 312.65 C113.03 233.41, 181.91 154.17, 290.83 28.88 M44.15 312.65 C104.78 242.9, 165.42 173.14, 290.83 28.88 M49.53 318.66 C118.11 239.76, 186.7 160.86, 297.52 33.38 M49.53 318.66 C122.32 234.93, 195.1 151.19, 297.52 33.38 M55.57 323.91 C114.07 256.6, 172.58 189.3, 304.21 37.87 M55.57 323.91 C118.91 251.03, 182.26 178.16, 304.21 37.87 M60.95 329.91 C110.93 272.41, 160.92 214.9, 310.25 43.12 M60.95 329.91 C118.4 263.82, 175.86 197.72, 310.25 43.12 M66.99 335.16 C161.6 226.31, 256.22 117.47, 316.94 47.61 M66.99 335.16 C117.95 276.54, 168.9 217.91, 316.94 47.61 M73.02 340.41 C160.4 239.89, 247.77 139.38, 322.98 52.86 M73.02 340.41 C130.07 274.78, 187.11 209.16, 322.98 52.86 M79.06 345.65 C148.89 265.32, 218.72 184.99, 328.36 58.86 M79.06 345.65 C132.44 284.25, 185.83 222.84, 328.36 58.86 M85.1 350.9 C168.75 254.68, 252.39 158.45, 334.4 64.11 M85.1 350.9 C164.17 259.95, 243.23 168.99, 334.4 64.11 M92.45 354.64 C164.6 271.64, 236.75 188.64, 339.13 70.87 M92.45 354.64 C172.69 262.34, 252.93 170.03, 339.13 70.87 M99.8 358.38 C185.58 259.7, 271.36 161.02, 343.85 77.63 M99.8 358.38 C159.93 289.21, 220.06 220.03, 343.85 77.63 M106.49 362.87 C191.3 265.32, 276.1 167.77, 349.23 83.63 M106.49 362.87 C178.3 280.27, 250.11 197.66, 349.23 83.63 M113.84 366.61 C203.11 263.93, 292.37 161.24, 353.96 90.39 M113.84 366.61 C181.99 288.22, 250.13 209.83, 353.96 90.39 M120.54 371.11 C207.86 270.66, 295.18 170.21, 359.34 96.39 M120.54 371.11 C169.01 315.34, 217.49 259.57, 359.34 96.39 M129.85 372.58 C211.58 278.57, 293.3 184.56, 362.1 105.42 M129.85 372.58 C180.02 314.87, 230.18 257.17, 362.1 105.42 M137.86 375.57 C192.1 313.17, 246.34 250.77, 366.17 112.93 M137.86 375.57 C193.3 311.79, 248.73 248.02, 366.17 112.93 M145.21 379.31 C196.83 319.93, 248.44 260.55, 370.89 119.69 M145.21 379.31 C223.83 288.86, 302.45 198.42, 370.89 119.69 M155.18 380.03 C208.02 319.25, 260.85 258.47, 372.99 129.46 M155.18 380.03 C227.06 297.34, 298.94 214.65, 372.99 129.46 M165.81 379.99 C232.63 303.12, 299.45 226.26, 374.44 139.99 M165.81 379.99 C229.45 306.79, 293.08 233.59, 374.44 139.99 M175.13 381.47 C223.49 325.84, 271.84 270.21, 377.2 149.02 M175.13 381.47 C235.36 312.18, 295.59 242.89, 377.2 149.02 M182.48 385.21 C247.49 310.43, 312.49 235.65, 381.92 155.77 M182.48 385.21 C228.12 332.71, 273.75 280.21, 381.92 155.77 M193.77 384.42 C244.36 326.22, 294.95 268.02, 382.71 167.06 M193.77 384.42 C250.31 319.37, 306.86 254.32, 382.71 167.06 M205.71 382.87 C263.49 316.4, 321.28 249.93, 382.85 179.1 M205.71 382.87 C273.27 305.15, 340.83 227.44, 382.85 179.1 M218.31 380.57 C275.56 314.71, 332.82 248.85, 382.32 191.9 M218.31 380.57 C251.86 341.97, 285.42 303.37, 382.32 191.9 M230.91 378.28 C288.69 311.8, 346.48 245.33, 381.8 204.69 M230.91 378.28 C282.68 318.71, 334.46 259.15, 381.8 204.69 M243.5 375.98 C282.87 330.69, 322.24 285.4, 381.28 217.49 M243.5 375.98 C271.58 343.68, 299.65 311.39, 381.28 217.49 M256.76 372.92 C298.37 325.05, 339.99 277.18, 379.44 231.79 M256.76 372.92 C282.91 342.84, 309.05 312.77, 379.44 231.79 M278.54 360.06 C304.61 330.07, 330.68 300.08, 378.26 245.34 M278.54 360.06 C299.01 336.51, 319.49 312.96, 378.26 245.34 M300.98 346.44 C313.93 331.54, 326.88 316.65, 360.03 278.52 M300.98 346.44 C313.34 332.23, 325.69 318.01, 360.03 278.52" stroke="#228be6" stroke-width="1" fill="none"></path>
    <path d="M381.41 190.71 C381.41 195.05, 381.27 199.39, 380.97 203.72 C380.67 208.05, 380.23 212.38, 379.64 216.67 C379.05 220.97, 378.31 225.26, 377.43 229.51 C376.54 233.75, 375.51 237.98, 374.34 242.16 C373.17 246.34, 371.86 250.48, 370.4 254.57 C368.95 258.66, 367.35 262.71, 365.63 266.68 C363.9 270.66, 362.03 274.59, 360.03 278.44 C358.04 282.3, 355.9 286.09, 353.65 289.8 C351.4 293.5, 349.01 297.14, 346.51 300.68 C344.01 304.23, 341.38 307.69, 338.64 311.06 C335.9 314.43, 333.04 317.7, 330.08 320.87 C327.12 324.05, 324.05 327.12, 320.87 330.08 C317.7 333.04, 314.43 335.9, 311.06 338.64 C307.69 341.38, 304.23 344.01, 300.68 346.51 C297.14 349.01, 293.5 351.4, 289.8 353.65 C286.09 355.9, 282.3 358.04, 278.44 360.03 C274.59 362.03, 270.66 363.9, 266.68 365.63 C262.71 367.35, 258.66 368.95, 254.57 370.4 C250.48 371.86, 246.34 373.17, 242.16 374.34 C237.98 375.51, 233.75 376.54, 229.51 377.43 C225.26 378.31, 220.97 379.05, 216.67 379.64 C212.38 380.23, 208.05 380.67, 203.72 380.97 C199.39 381.27, 195.05 381.41, 190.71 381.41 C186.37 381.41, 182.02 381.27, 177.69 380.97 C173.36 380.67, 169.04 380.23, 164.74 379.64 C160.44 379.05, 156.15 378.31, 151.91 377.43 C147.66 376.54, 143.43 375.51, 139.25 374.34 C135.08 373.17, 130.93 371.86, 126.84 370.4 C122.76 368.95, 118.71 367.35, 114.73 365.63 C110.75 363.9, 106.82 362.03, 102.97 360.03 C99.12 358.04, 95.33 355.9, 91.62 353.65 C87.91 351.4, 84.27 349.01, 80.73 346.51 C77.19 344.01, 73.72 341.38, 70.35 338.64 C66.99 335.9, 63.71 333.04, 60.54 330.08 C57.37 327.12, 54.29 324.05, 51.33 320.87 C48.37 317.7, 45.51 314.43, 42.77 311.06 C40.04 307.69, 37.41 304.23, 34.91 300.68 C32.4 297.14, 30.02 293.5, 27.76 289.8 C25.51 286.09, 23.38 282.3, 21.38 278.44 C19.39 274.59, 17.52 270.66, 15.79 266.68 C14.06 262.71, 12.46 258.66, 11.01 254.57 C9.56 250.48, 8.24 246.34, 7.07 242.16 C5.9 237.98, 4.87 233.75, 3.99 229.51 C3.11 225.26, 2.37 220.97, 1.78 216.67 C1.19 212.38, 0.74 208.05, 0.44 203.72 C0.15 199.39, 0 195.05, 0 190.71 C0 186.37, 0.15 182.02, 0.44 177.69 C0.74 173.36, 1.19 169.04, 1.78 164.74 C2.37 160.44, 3.11 156.15, 3.99 151.91 C4.87 147.66, 5.9 143.43, 7.07 139.25 C8.24 135.08, 9.56 130.93, 11.01 126.84 C12.46 122.76, 14.06 118.71, 15.79 114.73 C17.52 110.75, 19.39 106.82, 21.38 102.97 C23.38 99.12, 25.51 95.33, 27.76 91.62 C30.02 87.91, 32.4 84.27, 34.91 80.73 C37.41 77.19, 40.04 73.72, 42.77 70.35 C45.51 66.99, 48.37 63.71, 51.33 60.54 C54.29 57.37, 57.37 54.29, 60.54 51.33 C63.71 48.37, 66.99 45.51, 70.35 42.77 C73.72 40.04, 77.19 37.41, 80.73 34.91 C84.27 32.4, 87.91 30.02, 91.62 27.76 C95.33 25.51, 99.12 23.38, 102.97 21.38 C106.82 19.39, 110.75 17.52, 114.73 15.79 C118.71 14.06, 122.76 12.46, 126.84 11.01 C130.93 9.56, 135.08 8.24, 139.25 7.07 C143.43 5.9, 147.66 4.87, 151.91 3.99 C156.15 3.11, 160.44 2.37, 164.74 1.78 C169.04 1.19, 173.36 0.74, 177.69 0.44 C182.02 0.15, 186.37 0, 190.71 0 C195.05 0, 199.39 0.15, 203.72 0.44 C208.05 0.74, 212.38 1.19, 216.67 1.78 C220.97 2.37, 225.26 3.11, 229.51 3.99 C233.75 4.87, 237.98 5.9, 242.16 7.07 C246.34 8.24, 250.48 9.56, 254.57 11.01 C258.66 12.46, 262.71 14.06, 266.68 15.79 C270.66 17.52, 274.59 19.39, 278.44 21.38 C282.3 23.38, 286.09 25.51, 289.8 27.76 C293.5 30.02, 297.14 32.4, 300.68 34.91 C304.23 37.41, 307.69 40.04, 311.06 42.77 C314.43 45.51, 317.7 48.37, 320.87 51.33 C324.05 54.29, 327.12 57.37, 330.08 60.54 C333.04 63.71, 335.9 66.99, 338.64 70.35 C341.38 73.72, 344.01 77.19, 346.51 80.73 C349.01 84.27, 351.4 87.91, 353.65 91.62 C355.9 95.33, 358.04 99.12, 360.03 102.97 C362.03 106.82, 363.9 110.75, 365.63 114.73 C367.35 118.71, 368.95 122.76, 370.4 126.84 C371.86 130.93, 373.17 135.08, 374.34 139.25 C375.51 143.43, 376.54 147.66, 377.43 151.91 C378.31 156.15, 379.05 160.44, 379.64 164.74 C380.23 169.04, 380.67 173.36, 380.97 177.69 C381.27 182.02, 381.41 186.37, 381.41 190.71" stroke="#1864ab" stroke-width="2" fill="none"></path>
  </g>
  <g transform="translate(105.58203125 65.09714778091694) rotate(0 84.3282523777174 21.197265625)">
    <text x="0" y="30.394531250000007" font-family="Virgil, Segoe UI Emoji" font-size="33.17832880434783px" fill="#000000" text-anchor="start" style="white-space: pre;" direction="ltr">Typescript</text>
  </g>
  <g stroke-linecap="round" transform="translate(108.5859375 137.91355403091706) rotate(0 107.197265625 107.19726562499997)">
    <path d="M32.63 29.69 C32.63 29.69, 32.63 29.69, 32.63 29.69 M32.63 29.69 C32.63 29.69, 32.63 29.69, 32.63 29.69 M10.77 63.6 C24.48 53.21, 34.15 39.6, 55.74 12.1 M12.77 64.69 C25.18 50.06, 37.16 36.73, 56.8 12.86 M5.78 82.72 C21.85 65.94, 38.69 47.68, 69.76 12.06 M7.74 83.68 C21.49 68.37, 33.86 52.5, 68.88 12.75 M1.76 100.79 C27.77 72.65, 53.28 41.56, 84.13 10.29 M1.66 102.75 C21.59 79.96, 39.94 58.38, 82.87 8.45 M3.09 110.73 C34.08 75.14, 66.45 40.17, 93.96 6.84 M2.85 113.54 C34.13 76.1, 66.03 39.96, 96.03 7 M6.2 125.08 C27.05 97.4, 54.02 67.62, 108.58 4.73 M3.53 122.41 C26.55 97.43, 47.77 73.39, 109.03 4.11 M4.99 135.29 C40.85 90.48, 76.11 51.78, 116.01 5.95 M5.59 135.33 C35.43 98.83, 65.88 64.09, 116.8 5.81 M7.28 143.75 C35.66 107.83, 66.3 74.94, 126.55 6.71 M7.44 143.6 C48.92 96.13, 89.08 48.65, 126.57 7.32 M12 151.63 C44.33 110.04, 79.63 70.7, 135.38 8.18 M11.58 151.23 C40.3 117.64, 68.35 84.45, 136.75 7.43 M15.6 160.07 C43.04 124.38, 74.13 92.54, 146.25 8.29 M15.32 157.81 C50.18 116.44, 86.69 74.66, 145.03 9.89 M21.54 164.35 C61.37 118.4, 105.33 68.95, 154.47 11.35 M20.84 166.12 C69.18 106.38, 120.01 48.58, 153.85 12.58 M23.68 174.6 C75 114.65, 125.4 58.26, 160.47 17.02 M24.36 173.54 C73.54 116.07, 122.61 59.33, 159.98 16.74 M29.36 180.92 C69.76 135.1, 108.94 88.27, 166.7 20.81 M28.94 180.25 C81.62 117.05, 136.42 56.3, 168.07 21.53 M34.21 183.24 C78.67 134, 123.63 84.26, 175.53 26.95 M35.53 185.34 C75.4 139.21, 117.11 90.67, 173.92 24.95 M41.77 188.96 C77.56 150.32, 111.06 109.62, 179.51 29.23 M41.68 189.87 C77.19 150.8, 111.2 109.45, 179.93 30.77 M46.2 194.74 C82.52 157.57, 115.64 116.99, 185.46 36.89 M47.56 195.95 C84.7 151.19, 124.03 106.29, 185.96 35.28 M52.59 201.65 C85.6 165.88, 115.88 128.04, 190.6 41.37 M53.65 200.36 C92.56 155.98, 131.93 110.82, 192.3 41.28 M59.78 204.03 C102.5 153.92, 148.76 105.04, 195.41 50.02 M59.77 204.27 C90.37 169.61, 121.03 134.41, 196.91 49.17 M70.08 208.14 C100.69 171.34, 134.05 133.5, 200.21 53.55 M68.04 208.6 C109.37 160.6, 151.36 113.42, 201.24 54.04 M76.3 209.69 C113.48 165.87, 153.63 120.31, 208.38 58.89 M75.64 210.78 C125.53 154.46, 174.19 96.66, 206.39 60.77 M82.69 212.13 C119.92 173.6, 152.7 133.01, 211.15 69.06 M83.89 213.4 C120.04 170.98, 155.35 130.68, 209.99 69.6 M94.77 215.8 C133.3 172.12, 172.38 125.88, 213.33 80.78 M94.31 215.25 C129.19 174.24, 163.98 132.55, 212.76 78.6 M104.11 216.29 C136.96 175.05, 170.33 137.39, 213.93 86.66 M104.9 214.99 C135.38 178.29, 167 143.4, 215.08 86.96 M117.66 215.66 C146.81 177.91, 176.8 143.01, 215.7 97.05 M115.65 214.15 C141.28 183.23, 169.61 152.87, 217.03 96.62 M128.72 214.42 C153.94 182.73, 179.89 152.5, 216.24 109.03 M127.82 214.65 C151.74 186.55, 175.84 158.21, 217.88 110.82 M136.1 217.6 C161.89 183.58, 186 156.24, 216.96 124.62 M135.59 216.55 C157.1 190.29, 177.85 166.78, 215.45 123.99 M150.33 209.85 C173.39 183.66, 197.85 154.71, 214.29 136.33 M152.51 208.74 C175.61 181.75, 196.93 155.05, 215.61 136.88" stroke="#7950f2" stroke-width="1" fill="none"></path>
    <path d="M64.65 8.58 C75.04 2.05, 89.41 -0.02, 102.38 -0.56 C115.35 -1.11, 130.24 0.95, 142.47 5.32 C154.71 9.68, 165.94 17.2, 175.79 25.62 C185.65 34.05, 195.27 44.4, 201.61 55.84 C207.95 67.29, 212.25 81.42, 213.83 94.27 C215.42 107.13, 214.31 120.54, 211.12 132.95 C207.93 145.36, 202.22 158.16, 194.68 168.71 C187.15 179.27, 176.75 189.19, 165.91 196.29 C155.08 203.4, 142.09 208.5, 129.68 211.34 C117.27 214.18, 104.02 215.19, 91.45 213.32 C78.88 211.46, 65.57 206.6, 54.26 200.14 C42.96 193.69, 31.93 184.54, 23.63 174.58 C15.33 164.62, 8.37 152.79, 4.46 140.41 C0.56 128.03, -0.73 113.1, 0.19 100.3 C1.12 87.5, 4.64 75.32, 10.01 63.6 C15.38 51.87, 22.74 39.26, 32.41 29.95 C42.08 20.64, 61.62 11.34, 68.04 7.75 C74.47 4.15, 70.16 6.66, 70.95 8.38 M118.93 1.49 C131.44 1.03, 145.47 4.99, 157.04 10.73 C168.61 16.46, 179.89 25.84, 188.33 35.91 C196.78 45.98, 203.39 59.05, 207.69 71.17 C212 83.28, 214.46 95.91, 214.16 108.6 C213.85 121.29, 210.43 135.15, 205.86 147.32 C201.29 159.49, 195.22 172.16, 186.72 181.61 C178.22 191.07, 166.85 198.57, 154.86 204.07 C142.86 209.58, 127.69 213.91, 114.77 214.65 C101.85 215.38, 89.52 212.5, 77.33 208.49 C65.13 204.49, 51.87 198.16, 41.62 190.61 C31.37 183.07, 22.4 174.18, 15.82 163.22 C9.24 152.26, 4.29 137.51, 2.11 124.83 C-0.06 112.16, 0.21 99.66, 2.77 87.19 C5.32 74.71, 10.61 61.08, 17.45 49.99 C24.28 38.9, 33.66 28.31, 43.79 20.65 C53.92 13, 66.03 7.26, 78.24 4.06 C90.46 0.86, 110.68 1.55, 117.1 1.45 C123.51 1.36, 116.62 1.99, 116.73 3.49" stroke="#5f3dc4" stroke-width="2" fill="none"></path>
  </g>
  <g transform="translate(133.2415715682253 223.2416790309171) rotate(0 87.5 21)">
    <text x="0" y="30" font-family="Virgil, Segoe UI Emoji" font-size="33.10801630434781px" fill="#000000" text-anchor="start" style="white-space: pre;" direction="ltr">Javascript</text>
  </g>
</svg>